PathFileType	4	(X/Y/Z)	Patient3_R_AnkleIso_Processed.trc
DataRate	CameraRate	NumFrames	NumMarkers	Units	OrigDataRate	OrigDataStartFrame	OrigNumFrames
100.000000000000	100.000000000000	5	33	mm	100.000000000000	189	       301
Frame#	Time	L.Toe			R.Toe			R.Shoulder			L.Heel			Neck			R.Heel			L.Shank.Lateral			R.Shank.Lateral			L.Midfoot.Superior			L.Elbow			R.Midfoot.Lateral			R.Midfoot.Superior			L.Shoulder			R.Thigh.Lateral			R.Elbow			Sacral			L.Thigh.Superior			R.Patella			R.Wrist			R.Shank.Superior			L.Wrist			R.Shank.Inferior			R.Thigh.Superior			R.Thigh.Inferior			L.Asis			L.Shank.Inferior			L.Midfoot.Lateral			Sternum			L.Shank.Superior			R.Asis			L.Patella			L.Thigh.Lateral			L.Thigh.Inferior			
		X1	Y1	Z1	X2	Y2	Z2	X3	Y3	Z3	X4	Y4	Z4	X5	Y5	Z5	X6	Y6	Z6	X7	Y7	Z7	X8	Y8	Z8	X9	Y9	Z9	X10	Y10	Z10	X11	Y11	Z11	X12	Y12	Z12	X13	Y13	Z13	X14	Y14	Z14	X15	Y15	Z15	X16	Y16	Z16	X17	Y17	Z17	X18	Y18	Z18	X19	Y19	Z19	X20	Y20	Z20	X21	Y21	Z21	X22	Y22	Z22	X23	Y23	Z23	X24	Y24	Z24	X25	Y25	Z25	X26	Y26	Z26	X27	Y27	Z27	X28	Y28	Z28	X29	Y29	Z29	X30	Y30	Z30	X31	Y31	Z31	X32	Y32	Z32	X33	Y33	Z33	

189	2.380000000000	705.355348359904	43.275469488638	376.689459755384	1089.327762533984	321.535211403240	677.267490168581	447.264877659004	1445.204968080674	510.226010962341	414.837384227380	32.988018360599	427.130495052568	418.786596991321	1465.566801369498	361.290815797840	892.133895892091	105.834894332969	617.145916513440	478.849201201789	325.179807070587	295.236320973292	756.478201207180	430.833552684382	668.413603262424	585.683562057645	89.827955896216	390.425946576045	363.623039171458	1114.131400268471	95.973403882753	937.350948606951	168.820840502397	689.158836583461	975.799241980738	267.269152585883	640.004830107381	467.327639202899	1429.380360961034	219.367770616384	632.453211617128	726.703112753490	626.651957722822	534.966088930293	1139.112907159554	656.350241256472	404.351689215924	968.836268943125	380.982198597305	655.311166113192	739.595368932247	304.389177682476	778.963397530161	610.705435209290	577.833945426510	631.529360145329	1269.513352218911	465.674565395897	810.471532222946	504.656905251502	613.541956488250	539.317282957476	1002.090614276260	-56.454894947351	881.595554884139	343.990502042913	624.180830617740	685.114958178318	802.953138048342	562.567204833565	731.397869557908	701.093290974799	564.432937561701	604.079820245070	967.912907116036	279.398426747639	548.618033359939	230.403479655519	365.591083296456	490.479072003962	27.149280364317	359.323576787803	558.959594338603	1375.656554822749	379.329389706750	571.446998679792	382.686397817836	333.783857947599	543.851071964016	996.934967797282	533.244035835409	614.389951058254	491.581024072319	345.719783232087	558.009744799127	657.654739195803	259.004895410531	636.714448749379	609.963401845568	324.110421603352	
190	2.390000000000	705.365167958004	43.251053126524	376.685244360728	1089.606412403934	320.203905066030	678.791165403345	447.255038876465	1445.069306351784	510.400323204779	414.840002981536	32.988501229304	427.127398773631	418.686603992575	1465.524642918440	361.520654530427	891.219024330479	105.931144740875	617.753463536754	479.023568959644	325.156311400110	295.279620015161	755.948381011343	430.632112273047	668.734455850056	585.681478512643	89.822924928030	390.438883767667	363.476202928572	1114.223088977643	96.099078633233	936.408589690310	168.704852841721	690.008542794216	975.923549765304	266.737200111830	640.908643843363	467.130240730719	1429.486435723020	219.501079629077	632.081853281417	726.547961148161	626.822124256842	535.475138271767	1138.935394211066	656.172357661732	404.557819988437	968.860706844858	380.826864309761	655.572141925806	739.540011405206	304.607882152949	778.725187223269	610.570316362331	578.418837287727	631.702155518484	1269.605808734024	465.518166067785	810.073275315332	504.542338714437	614.155042782621	539.092712528413	1002.315395508960	-56.519199917883	881.305729636767	343.871597231894	624.869913226808	684.982556217924	802.851134253835	562.971344389225	731.221667512511	700.971300362123	564.920612081116	604.445134055977	967.861202683172	279.473244574745	548.686023540225	230.390921690586	365.675787315209	490.479475329773	27.149751118749	359.320919730445	558.935732637374	1375.714366340116	379.344269084931	571.542448758324	382.656252318438	333.949697834723	543.870393191732	996.958989353880	533.235749792051	614.469237358197	491.554547229423	345.899230135519	558.304728847070	657.636148408590	259.079082571270	636.897018894551	609.912819027214	324.313545384317	
191	2.400000000000	705.375355689512	43.226619834366	376.681642312734	1089.981039277749	318.779342868726	680.261032299426	447.248892623683	1444.931258471006	510.571125522174	414.842503997554	32.989044547265	427.123842522253	418.594713173759	1465.482805348395	361.744973146834	890.277827912579	106.066901637786	618.366319552839	479.200710362407	325.133572375275	295.321615915691	755.411768441910	430.428776729305	669.052167693850	585.682648962067	89.822420533370	390.448002873428	363.332415920174	1114.320767907039	96.219448228526	935.495140248853	168.600984011087	690.840949648013	976.112153900542	266.182501626570	641.797846286432	466.948284006752	1429.592864146580	219.631710883128	631.701358962954	726.395426337389	626.994847574903	535.971275391621	1138.754734534248	655.990746306265	404.770690452114	968.886270189213	380.671655860709	655.836014730222	739.484552210743	304.831099182846	778.471723552182	610.434053276922	579.006360042705	631.876090327470	1269.697821055142	465.367405276376	809.660934617639	504.432659949057	614.771113840669	538.863457513810	1002.537075431283	-56.589723038978	881.026137832194	343.762111910823	625.562714516350	684.840796751905	802.748503853700	563.374191723191	731.032680536988	700.846798054776	565.408045805166	604.815502045197	967.811007208004	279.552344996787	548.754249969678	230.378804652121	365.761783767387	490.479629474673	27.150379033400	359.318333824143	558.918803832031	1375.772838885213	379.361990388543	571.636031414631	382.625866338462	334.120331193658	543.887732314020	996.982187465672	533.233060014712	614.550009967993	491.529275043492	346.081101855820	558.603582300034	657.617876744913	259.154783081890	637.079920397862	609.861253655813	324.519067269984	
192	2.410000000000	705.385712639259	43.202448264653	376.678680310089	1090.451477181433	317.255883070841	681.690824703103	447.246637293380	1444.790864454780	510.737495841140	414.844909718922	32.989528181778	427.120023868119	418.511819919651	1465.441186392173	361.962563876760	889.311500738524	106.244150798673	618.981133830681	479.378098300788	325.111589585903	295.362109674801	754.871574072722	430.224268548358	669.366261869928	585.687020463641	89.826379956968	390.453124844575	363.193372702193	1114.423411852949	96.333539274568	934.607879896852	168.508914697567	691.655814894363	976.367155353413	265.603361498676	642.676968064901	466.783545667436	1429.698564501841	219.759234673427	631.315542783445	726.246954711732	627.171453641662	536.447844475466	1138.571063312033	655.807959605655	404.988971961995	968.911940181225	380.517114701783	656.100654930694	739.429100197576	305.055679530146	778.205271012501	610.297247606581	579.595220894713	632.048655973952	1269.786955977594	465.224932050964	809.237177446595	504.328460246717	615.389208408155	538.631903690452	1002.753509943484	-56.665950110349	880.760016555011	343.662659001962	626.258298011987	684.691200019692	802.645015112346	563.773532970983	730.832898166457	700.720088062742	565.893471080636	605.188475867549	967.762717924125	279.633746325474	548.821712374121	230.367218426319	365.848002520476	490.479491854663	27.151147820756	359.315748449531	558.908869572977	1375.830693335876	379.383222671734	571.726914674770	382.596027918625	334.292719685781	543.904287505241	997.003812963303	533.235219982704	614.630520647169	491.505387208948	346.263263602907	558.903461905850	657.599992662598	259.230512119922	637.261404807523	609.809114967873	324.724553057688	
193	2.420000000000	705.396039565127	43.178797775797	376.676372407853	1091.015126004843	315.629280788729	683.094673896066	447.248563463267	1444.648184951336	510.898722217684	414.847233325460	32.989835531561	427.116139948407	418.438693687897	1465.399762789418	362.172516970356	888.321615770163	106.464360517716	619.594476941490	479.553528377742	325.090349004078	295.400864539304	754.330910455900	430.019366153347	669.676217177207	585.694385685378	89.834532134241	390.454278155779	363.060722894288	1114.529980526357	96.440653122983	933.743736221143	168.427969253041	692.453140554753	976.689004218021	264.998346199660	643.550960402957	466.637346070097	1429.802649314651	219.883353317653	630.927956813527	726.103758463610	627.352891037941	536.899093698653	1138.384537267262	655.626500178136	405.211270979023	968.936709609937	380.363610712745	656.364106776453	739.373795770478	305.278764973692	777.928317885391	610.160608777616	580.184216508033	632.217520185898	1269.870856557194	465.093052556242	808.804806782238	504.230287685687	616.008385284891	538.400540500118	1002.962834259686	-56.747169330871	880.510135859071	343.573710136168	626.955807397380	684.535415497093	802.540571343686	564.167498490698	730.624484662972	700.591611747967	566.375343255166	605.561701077541	967.716643778096	279.715459096011	548.887575830340	230.356204462355	365.933473139737	490.479041570194	27.152032141891	359.313106230515	558.905919639250	1375.886696468193	379.408530575849	571.814561141094	382.567366418896	334.463974735658	543.921131227553	997.023274423779	533.241250474501	614.709331773434	491.482984439073	346.443735126072	559.201876756089	657.582489999223	259.304835444445	637.439975761882	609.756892819280	324.927863167899	
